# xmcd CD database file
#
# Track frame offsets:
#	150
#	17222
#	38169
#	67309
#	91647
#	117698
#	135309
#	152154
#	174725
#	203054
#	225292
#	248143
#	269880
#	311849
#
# Disc length: 4548 seconds
#
# Revision: 0
# Processed by: cddbd v1.5.2PL0 Copyright (c) Steve Scherf et al.
# Submitted via: CDex 1.51
#
DISCID=c611c20e
DTITLE=Robert Cray - Live At The Redux Club
DYEAR=1987
DGENRE=Blues
TTITLE0=I Guess I Showed Her
TTITLE1=Still Around
TTITLE2=T-Bone Shuffle
TTITLE3=Right Next Door
TTITLE4=Smokin' Gun
TTITLE5=More Than I Can Stand
TTITLE6=Bad Influence
TTITLE7=Playing In The Dirt
TTITLE8=Porch Light
TTITLE9=Foul Play
TTITLE10=Phone Booth
TTITLE11=False Accusation (with  Stevie Ray Vaughan)
TTITLE12=Cray SRV Jam
TTITLE13=New Blood (with Stevie Ray Vaughan)
EXTD=YEAR: 1987
EXTT0=
EXTT1=
EXTT2=
EXTT3=
EXTT4=
EXTT5=
EXTT6=
EXTT7=
EXTT8=
EXTT9=
EXTT10=
EXTT11=
EXTT12=
EXTT13=
PLAYORDER=
